<svg xmlns="http://www.w3.org/2000/svg" version="1.1" xmlns:xlink="http://www.w3.org/1999/xlink"
  xmlns:svgjs="http://svgjs.com/svgjs" width="1440" height="560" preserveAspectRatio="none" viewBox="0 0 1440 560">
  <g mask="url(&quot;#SvgjsMask1456&quot;)" fill="none">
    <rect width="1440" height="560" x="0" y="0" fill="url(#SvgjsLinearGradient1457)"></rect>
    <path d="M1440 0L1181.29 0L1440 203.06z" fill="rgba(255, 255, 255, .1)"></path>
    <path d="M1181.29 0L1440 203.06L1440 225.96L829.6099999999999 0z" fill="rgba(255, 255, 255, .075)"></path>
    <path d="M829.61 0L1440 225.96L1440 286.35L376.75 0z" fill="rgba(255, 255, 255, .05)"></path>
    <path d="M376.75 0L1440 286.35L1440 415.90000000000003L369.38 0z" fill="rgba(255, 255, 255, .025)"></path>
    <path d="M0 560L177.92 560L0 324.68z" fill="rgba(0, 0, 0, .1)"></path>
    <path d="M0 324.68L177.92 560L247.14999999999998 560L0 175.89000000000001z" fill="rgba(0, 0, 0, .075)"></path>
    <path d="M0 175.89L247.14999999999998 560L875.39 560L0 92.20999999999998z" fill="rgba(0, 0, 0, .05)"></path>
    <path d="M0 92.20999999999998L875.39 560L1191.73 560L0 42.95999999999998z" fill="rgba(0, 0, 0, .025)"></path>
  </g>
  <defs>
    <mask id="SvgjsMask1456">
      <rect width="1440" height="560" fill="#ffffff"></rect>
    </mask>
    <linearGradient x1="84.72%" y1="-39.29%" x2="15.28%" y2="139.29%" gradientUnits="userSpaceOnUse"
      id="SvgjsLinearGradient1457">
      <stop stop-color="rgba(0, 154, 91, 1)" offset="0"></stop>
      <stop stop-color="rgba(0, 30, 38, 1)" offset="1"></stop>
    </linearGradient>
  </defs>
</svg>