<svg xmlns="http://www.w3.org/2000/svg" version="1.1" xmlns:xlink="http://www.w3.org/1999/xlink"
  xmlns:svgjs="http://svgjs.dev/svgjs" width="1000" height="623" viewBox="0 0 1000 623">
  <g transform="matrix(1,0,0,1,-0.6060606060606233,0.2522267206477409)"><svg viewBox="0 0 396 247"
      data-background-color="#ffffff" preserveAspectRatio="xMidYMid meet" height="623" width="1000"
      xmlns="http://www.w3.org/2000/svg" xmlns:xlink="http://www.w3.org/1999/xlink">
      <g id="tight-bounds" transform="matrix(1,0,0,1,0.2400000000000091,-0.09999999999999432)"><svg
          viewBox="0 0 395.52 247.2" height="247.2" width="395.52">
          <g><svg></svg></g>
          <g><svg viewBox="0 0 395.52 247.2" height="247.2" width="395.52">
              <g transform="matrix(1,0,0,1,75.54432000000001,84.98621945837513)"><svg
                  viewBox="0 0 244.43135999999996 77.22756108324973" height="77.22756108324973"
                  width="244.43135999999996">
                  <g><svg viewBox="0 0 244.43135999999996 77.22756108324973" height="77.22756108324973"
                      width="244.43135999999996">
                      <g><svg viewBox="0 0 244.43136 77.22756108324974" height="77.22756108324973"
                          width="244.43135999999996">
                          <g><svg viewBox="0 0 244.43136 77.22756108324974" height="77.22756108324974"
                              width="244.43136">
                              <g id="textblocktransform"><svg viewBox="0 0 244.43136 77.22756108324974"
                                  height="77.22756108324974" width="244.43136" id="textblock">
                                  <g><svg viewBox="0 0 244.43136 77.22756108324974" height="77.22756108324974"
                                      width="244.43136">
                                      <g transform="matrix(1,0,0,1,0,0)"><svg width="244.43136"
                                          viewBox="1.600000023841858 -47 149.5399932861328 47.25"
                                          height="77.22756108324974" data-palette-color="#81c995">
                                          <path
                                            d="M11.95 0.25Q7.05 0.25 4.33-2.53 1.6-5.3 1.6-9.85L1.6-9.85Q1.6-13.9 3.2-16.95 4.8-20 7.35-21.65 9.9-23.3 12.7-23.3L12.7-23.3Q15.45-23.3 16.98-21.68 18.5-20.05 18.5-17.5L18.5-17.5Q18.5-15.4 17.57-13.95 16.65-12.5 15.15-12.5L15.15-12.5Q14.2-12.5 13.63-12.95 13.05-13.4 13.05-14.2L13.05-14.2Q13.05-14.55 13.15-15 13.25-15.45 13.3-15.65L13.3-15.65Q13.55-16.4 13.55-17.05L13.55-17.05Q13.55-17.7 13.23-18.05 12.9-18.4 12.3-18.4L12.3-18.4Q11.15-18.4 10.15-17.38 9.15-16.35 8.55-14.6 7.95-12.85 7.95-10.75L7.95-10.75Q7.95-4.95 13-4.95L13-4.95Q15.05-4.95 17.43-6.33 19.8-7.7 22.1-10.45L22.1-10.45Q22.7-11.15 23.45-11.15L23.45-11.15Q24.1-11.15 24.48-10.55 24.85-9.95 24.85-8.9L24.85-8.9Q24.85-7 23.9-5.8L23.9-5.8Q21.55-2.9 18.28-1.33 15 0.25 11.95 0.25L11.95 0.25ZM46.3-15.35Q46.95-15.35 47.3-14.7 47.65-14.05 47.65-13.05L47.65-13.05Q47.65-10.65 46.2-10.2L46.2-10.2Q43.2-9.15 39.6-9L39.6-9Q38.65-4.8 35.85-2.27 33.05 0.25 29.5 0.25L29.5 0.25Q26.5 0.25 24.37-1.2 22.25-2.65 21.15-5.05 20.05-7.45 20.05-10.25L20.05-10.25Q20.05-14.05 21.5-17.03 22.95-20 25.5-21.68 28.05-23.35 31.15-23.35L31.15-23.35Q34.95-23.35 37.27-20.73 39.6-18.1 40-14.25L40-14.25Q42.35-14.4 45.6-15.25L45.6-15.25Q46-15.35 46.3-15.35L46.3-15.35ZM29.9-5.05Q31.5-5.05 32.67-6.35 33.85-7.65 34.25-10.1L34.25-10.1Q32.7-11.15 31.87-12.85 31.05-14.55 31.05-16.45L31.05-16.45Q31.05-17.25 31.2-18.05L31.2-18.05 30.95-18.05Q28.95-18.05 27.62-16.13 26.3-14.2 26.3-10.7L26.3-10.7Q26.3-7.95 27.37-6.5 28.45-5.05 29.9-5.05L29.9-5.05ZM71.75-11.15Q72.4-11.15 72.77-10.55 73.15-9.95 73.15-8.9L73.15-8.9Q73.15-6.9 72.2-5.8L72.2-5.8Q70.15-3.3 67.7-1.53 65.25 0.25 62.85 0.25L62.85 0.25Q59.05 0.25 57.05-4.2L57.05-4.2Q54.95-1.55 53.37-0.65 51.8 0.25 49.7 0.25L49.7 0.25Q46.65 0.25 44.67-2.02 42.7-4.3 42.7-7.95L42.7-7.95Q42.7-11.95 44.4-15.38 46.1-18.8 49.07-20.98 52.05-23.15 55.75-23.55L55.75-23.55Q56.7-33.25 59.37-40.13 62.05-47 66.4-47L66.4-47Q68.55-47 69.97-45.05 71.4-43.1 71.4-39.15L71.4-39.15Q71.4-33.55 68.65-26.05 65.9-18.55 61.3-10.65L61.3-10.65Q61.5-7.75 62.17-6.5 62.85-5.25 63.9-5.25L63.9-5.25Q65.25-5.25 66.65-6.45 68.05-7.65 70.4-10.45L70.4-10.45Q71-11.15 71.75-11.15L71.75-11.15ZM65.85-42.1Q64.9-42.1 63.95-38.73 63-35.35 62.32-29.9 61.65-24.45 61.35-18.5L61.35-18.5Q66.95-30.7 66.95-38.1L66.95-38.1Q66.95-40 66.62-41.05 66.3-42.1 65.85-42.1L65.85-42.1ZM51.45-4.8Q52.4-4.8 53.35-5.58 54.3-6.35 55.75-8.45L55.75-8.45Q55.25-11.15 55.25-14.5L55.25-14.5Q55.25-15.7 55.35-18.4L55.35-18.4Q52.6-17.55 50.77-14.73 48.95-11.9 48.95-8.45L48.95-8.45Q48.95-4.8 51.45-4.8L51.45-4.8ZM91.39-11.15Q92.04-11.15 92.42-10.55 92.79-9.95 92.79-8.9L92.79-8.9Q92.79-6.9 91.84-5.8L91.84-5.8Q89.99-3.55 86.62-1.65 83.24 0.25 79.39 0.25L79.39 0.25Q74.14 0.25 71.24-2.6 68.34-5.45 68.34-10.4L68.34-10.4Q68.34-13.85 69.79-16.82 71.24-19.8 73.82-21.55 76.39-23.3 79.64-23.3L79.64-23.3Q82.54-23.3 84.29-21.58 86.04-19.85 86.04-16.9L86.04-16.9Q86.04-13.45 83.57-10.98 81.09-8.5 75.19-7.05L75.19-7.05Q76.44-4.75 79.94-4.75L79.94-4.75Q82.19-4.75 85.07-6.33 87.94-7.9 90.04-10.45L90.04-10.45Q90.64-11.15 91.39-11.15L91.39-11.15ZM78.79-18.4Q76.94-18.4 75.67-16.25 74.39-14.1 74.39-11.05L74.39-11.05 74.39-10.95Q77.34-11.65 79.04-13.05 80.74-14.45 80.74-16.3L80.74-16.3Q80.74-17.25 80.22-17.82 79.69-18.4 78.79-18.4L78.79-18.4ZM92.29 0.25Q90.39 0.25 89.62-1.75 88.84-3.75 88.84-8.15L88.84-8.15Q88.84-14.65 90.69-20.5L90.69-20.5Q91.14-21.95 92.17-22.63 93.19-23.3 95.04-23.3L95.04-23.3Q96.04-23.3 96.44-23.05 96.84-22.8 96.84-22.1L96.84-22.1Q96.84-21.3 96.09-18.5L96.09-18.5Q95.59-16.5 95.29-15 94.99-13.5 94.79-11.3L94.79-11.3Q96.44-15.6 98.49-18.3 100.54-21 102.52-22.15 104.49-23.3 106.14-23.3L106.14-23.3Q109.39-23.3 109.39-20.05L109.39-20.05Q109.39-19.4 108.94-16.9L108.94-16.9Q108.54-14.9 108.54-14.4L108.54-14.4Q108.54-12.65 109.79-12.65L109.79-12.65Q111.19-12.65 113.39-14.85L113.39-14.85Q114.04-15.5 114.74-15.5L114.74-15.5Q115.39-15.5 115.77-14.93 116.14-14.35 116.14-13.4L116.14-13.4Q116.14-11.55 115.14-10.5L115.14-10.5Q113.74-9.05 111.87-8.03 109.99-7 107.89-7L107.89-7Q105.24-7 103.87-8.35 102.49-9.7 102.49-12L102.49-12Q102.49-12.75 102.64-13.5L102.64-13.5Q102.74-14.5 102.74-14.85L102.74-14.85Q102.74-15.65 102.19-15.65L102.19-15.65Q101.44-15.65 100.22-13.98 98.99-12.3 97.79-9.55 96.59-6.8 95.84-3.75L95.84-3.75Q95.29-1.4 94.57-0.58 93.84 0.25 92.29 0.25L92.29 0.25ZM149.74-11.15Q150.39-11.15 150.76-10.55 151.14-9.95 151.14-8.9L151.14-8.9Q151.14-6.95 150.19-5.8L150.19-5.8Q147.74-2.9 145.34-1.33 142.94 0.25 139.99 0.25L139.99 0.25Q135.54 0.25 133.26-2.4 130.99-5.05 129.59-10.15L129.59-10.15 127.89-16.35 116.09-1.75Q115.09-0.5 114.04-0.13 112.99 0.25 111.59 0.25L111.59 0.25Q110.19 0.25 109.26-0.28 108.34-0.8 108.34-1.75L108.34-1.75Q108.34-3 109.79-4.6L109.79-4.6 125.99-23.05 124.39-28.9Q123.24-33 121.84-34.65 120.44-36.3 118.64-36.3L118.64-36.3Q115.99-36.3 112.44-32.45L112.44-32.45Q111.84-31.8 111.09-31.8L111.09-31.8Q110.34-31.8 109.81-32.38 109.29-32.95 109.29-33.85L109.29-33.85Q109.29-35.35 110.74-37.1L110.74-37.1Q112.79-39.5 115.19-40.95 117.59-42.4 120.89-42.4L120.89-42.4Q124.44-42.4 126.74-40.18 129.04-37.95 130.39-33L130.39-33 131.39-29.5 140.14-40.15Q141.14-41.35 142.19-41.85 143.24-42.35 144.74-42.35L144.74-42.35Q146.09-42.35 146.86-41.85 147.64-41.35 147.64-40.45L147.64-40.45Q147.64-39.25 146.29-37.7L146.29-37.7 133.29-22.7 136.14-12.5Q136.89-9.85 137.49-8.45 138.09-7.05 138.96-6.38 139.84-5.7 141.29-5.7L141.29-5.7Q142.84-5.7 144.51-6.8 146.19-7.9 148.39-10.45L148.39-10.45Q148.99-11.15 149.74-11.15L149.74-11.15Z"
                                            opacity="1" transform="matrix(1,0,0,1,0,0)" fill="#81c995"
                                            class="undefined-text-0" data-fill-palette-color="primary" id="text-0">
                                          </path>
                                        </svg></g>
                                    </svg></g>
                                </svg></g>
                            </svg></g>
                        </svg></g>
                    </svg></g>
                </svg></g>
              <path
                d="M184.645 78.986L184.645 23.371 385.103 23.371 385.103 223.829 184.645 223.829 184.645 168.214 191.609 168.214 191.609 216.865 378.139 216.865 378.139 30.335 191.609 30.335 191.609 78.986Z"
                fill="#81c995" stroke="transparent" data-fill-palette-color="primary"></path>
            </svg></g>
          <defs></defs>
        </svg>
        <rect width="395.52" height="247.2" fill="none" stroke="none" visibility="hidden"></rect>
      </g>
    </svg></g>
</svg>