<svg xmlns="http://www.w3.org/2000/svg" viewBox="0 0 864 2078.72">
  <path fill="#000" d="M454.0 1935.3599853515625Q457.7060546875 1935.3599853515625 461.3760070800781 1935.3225355148315V2041.999984741211C461.3760070800781 2062.2798767089844 477.81610107421875 2078.719985961914 498.09600830078125 2078.719985961914C518.3759155273438 2078.719985961914 534.8159790039062 2062.2798767089844 534.8159790039062 2041.999984741211V1930.360918045044Q698.2594604492188 1908.857741355896 772.5 1794.8599853515625Q864.0 1654.3599853515625 864.0 1406.3599853515625Q864.0 1283.3599853515625 833.0 1197.8599853515625Q802.0 1112.3599853515625 751.0 1047.8599853515625Q700.0 983.3599853515625 639.0 925.3599853515625L534.8159790039062 825.28173828125V664.3599853515625H852.0Q852.0 401.3599853515625 750.5 272.3599853515625Q678.2515869140625 180.536865234375 534.8159790039062 154.0740966796875V36.719970703125C534.8159790039062 16.4400634765625 518.3759155273438 0.0 498.09600830078125 0.0C477.81610107421875 0.0 461.3760070800781 16.4400634765625 461.3760070800781 36.719970703125V145.10400390625Q435.1368408203125 143.3599853515625 407.0 143.3599853515625Q404.8124694824219 143.3599853515625 402.6239929199219 143.37451171875V36.719970703125C402.6239929199219 16.4400634765625 386.18389892578125 0.0 365.90399169921875 0.0C345.6241149902344 0.0 329.1839904785156 16.4400634765625 329.1839904785156 36.719970703125V148.395751953125Q187.4122314453125 167.736572265625 104.5 261.3599853515625Q0.0 379.3599853515625 0.0 604.3599853515625Q0.0 819.3599853515625 177.0 986.3599853515625L329.1839904785156 1130.8384399414062V1261.3599853515625H0.0V1433.3599853515625Q0.0 1695.3599853515625 106.5 1815.3599853515625Q183.0749969482422 1901.641679763794 329.1839904785156 1925.8856172561646V2041.999984741211C329.1839904785156 2062.2798767089844 345.6241149902344 2078.719985961914 365.90399169921875 2078.719985961914C386.18389892578125 2078.719985961914 402.6239929199219 2062.2798767089844 402.6239929199219 2041.999984741211V1933.908950805664Q427.4988098144531 1935.3599853515625 454.0 1935.3599853515625ZM402.6239929199219 1607.2831420898438V1203.80859375Q426.66943359375 1229.5153198242188 444.5 1251.8599853515625Q453.55560302734375 1263.2081298828125 461.3760070800781 1274.8189697265625V1607.82763671875Q448.04876708984375 1611.3599853515625 431.0 1611.3599853515625Q415.1872253417969 1611.3599853515625 402.6239929199219 1607.2831420898438ZM461.3760070800781 754.7359619140625 436.0 730.3599853515625Q417.3674011230469 712.6748046875 402.6239929199219 696.28564453125V468.235595703125Q409.8928527832031 467.3599853515625 418.0 467.3599853515625Q443.55224609375 467.3599853515625 461.3760070800781 478.019775390625V754.7359619140625Z"/>
</svg>
