<svg viewBox="0 0 300 300" xmlns:xlink="http://www.w3.org/1999/xlink" xmlns="http://www.w3.org/2000/svg" id="图层_1">
  <defs>
    <style>
      .cls-1 {
        fill: none;
      }

      .cls-2 {
        clip-path: url(#clip-path);
      }

      .cls-3 {
        fill: #3f2d29;
      }

      .cls-4 {
        fill: #f7ccbc;
      }

      .cls-5 {
        fill: #d6e0ea;
      }

      .cls-6 {
        fill: #ffdecc;
      }

      .cls-7 {
        fill: #efbba0;
      }

      .cls-8 {
        fill: #719dcc;
      }

      .cls-9 {
        fill: #7594bd;
      }

      .cls-10 {
        fill: #e1ecf9;
      }

      .cls-11 {
        fill: #b41f20;
      }

      .cls-12 {
        fill: #d42e2f;
      }

      .cls-13 {
        fill: url(#未命名的渐变_8);
      }

      .cls-14 {
        fill: #5c3e31;
      }

      .cls-15 {
        fill: #3f2f31;
      }

      .cls-16 {
        fill: url(#linear-gradient);
      }

      .cls-17 {
        fill: url(#linear-gradient-2);
      }

      .cls-18 {
        fill: #634335;
      }

      .cls-19 {
        clip-path: url(#clip-path-2);
      }

      .cls-20 {
        fill: #a1b7bf;
      }

      .cls-21 {
        fill: #424242;
      }

      .cls-22 {
        fill: #2e2e2e;
      }
    </style>
    <clipPath id="clip-path">
      <rect height="300" width="300" class="cls-1"></rect>
    </clipPath>
    <linearGradient gradientUnits="userSpaceOnUse" y2="201.15" x2="167.48" y1="201.15" x1="135.19" id="未命名的渐变_8">
      <stop stop-color="#f2f2f2" offset="0"></stop>
      <stop stop-color="#efefef" offset="0.62"></stop>
      <stop stop-color="#e8e8e8" offset="1"></stop>
    </linearGradient>
    <linearGradient gradientUnits="userSpaceOnUse" y2="157.82" x2="129.87" y1="157.82" x1="127" id="linear-gradient">
      <stop stop-color="#dbdbdb" offset="0"></stop>
      <stop stop-color="#d8d8d8" offset="0.3"></stop>
      <stop stop-color="#cecece" offset="0.54"></stop>
      <stop stop-color="#bcbcbc" offset="0.76"></stop>
      <stop stop-color="#a4a4a4" offset="0.98"></stop>
      <stop stop-color="#a1a1a1" offset="1"></stop>
    </linearGradient>
    <linearGradient xlink:href="#linear-gradient" y2="157.82" x2="177.87" y1="157.82" x1="175" id="linear-gradient-2">
    </linearGradient>
    <clipPath id="clip-path-2">
      <rect height="297" width="297" y="-373.61" x="1.5" class="cls-1"></rect>
    </clipPath>
  </defs>
  <g class="cls-2">
    <path d="M97.93,174.89S83,186,83,199s3.84,21.53,23,27c14,4,29-10,29-10Z" class="cls-3"></path>
    <path
      d="M246.2,294.27c-31-22.07-69.63-50.33-69.63-50.33V210.71l-25.36.14-25.35-.14v33.23S87.28,272.2,56.23,294.27l-4.31,77s37.74,8.58,98,15.95a18.91,18.91,0,0,0,2,.07c60.58-7.39,98.57-16,98.57-16Z"
      class="cls-4"></path>
    <polygon points="125 261 151.01 275.17 177 262 172.81 312 128.12 312 125 261" class="cls-5"></polygon>
    <path
      d="M94.37,149.76s-6.36-6.21-9.78-5-6.08,8.83-3.61,16.43S86.2,175,88.39,176.61s10.35,3,10.54,2.28S94.37,149.76,94.37,149.76Z"
      class="cls-6"></path>
    <path
      d="M210,149.76s6.37-6.21,9.79-5,6.08,8.83,3.61,16.43S218.13,175,216,176.61s-10.36,3-10.54,2.28S210,149.76,210,149.76Z"
      class="cls-6"></path>
    <path
      d="M211.33,99c-10.86-32.67-41.24-40.27-59.2-40.27S103.65,66.33,92.79,99s1.55,79.86,12.21,96c4.53,6.85,10,16,10,16s29.88,19,38,19c7.11,0,35-17,35-17s7.64-10.52,12-18C209.75,178.29,222.18,131.68,211.33,99Z"
      class="cls-6"></path>
    <path
      d="M161.13,183.62a6.76,6.76,0,0,1-.49.76A10.84,10.84,0,0,1,159,186.1a11.28,11.28,0,0,1-2.82,1.84,11.55,11.55,0,0,1-1.88.66,17.83,17.83,0,0,1-2.14.26l-.11-.65-.21-.66h0l-.06.64-.22.3-.45.1a7.7,7.7,0,0,1-.92-.07,12.39,12.39,0,0,1-2-.67,11.87,11.87,0,0,1-1.55-.87,10.22,10.22,0,0,1-1.25-1,9.29,9.29,0,0,1-2.08-2.48l0,0a.21.21,0,0,1,.09-.28.18.18,0,0,1,.19,0l.73.37c.46.25,1.15.55,1.95.93.39.2.85.35,1.3.55s1,.3,1.47.51,1,.25,1.51.39,1.26.12,1.69.14,1.08-.06,1.63-.12,1.07-.22,1.57-.4,1-.32,1.47-.51.92-.34,1.31-.54c.8-.38,1.49-.66,2-.91l.74-.37a.23.23,0,0,1,.3.1.23.23,0,0,1,0,.2Z"
      class="cls-7"></path>
    <path d="M176.57,241,167,320s58.15-3.91,80.86-7c0,0,1.6-24.39-.65-43.76A650.62,650.62,0,0,0,176.57,241Z"
      class="cls-8"></path>
    <path d="M247.21,269.23l-4.37,44.31A171,171,0,0,0,269,309S260.61,287.8,247.21,269.23Z" class="cls-9"></path>
    <polygon points="169 277 190 268.87 190 265.23 217 263 192.4 243.03 176.63 236.37 169 277" class="cls-10"></polygon>
    <path d="M125.85,241,140,321s-62.73-4.91-85.45-8c0,0-1.59-24.39.65-43.76A651.22,651.22,0,0,1,125.85,241Z"
      class="cls-8"></path>
    <polygon points="136 276 112 268.87 112 265.23 86 262 109.6 243.03 125.38 236.37 136 276" class="cls-10"></polygon>
    <path d="M55.22,271.74,59.43,320a157.38,157.38,0,0,1-25.73-5S41.82,292,55.22,271.74Z" class="cls-9"></path>
    <path d="M133.22,198.92c2.06,6.94,9.38,12.08,18.11,12.08s16-5.14,18.12-12.08Z" class="cls-11"></path>
    <path d="M165,205.93c-2.51-3.39-7.66-5.72-13.62-5.72s-11.11,2.33-13.62,5.72a20.83,20.83,0,0,0,27.24,0Z"
      class="cls-12"></path>
    <path
      d="M167.48,198.92H135.19a7.81,7.81,0,0,0,4.48,3.6c3.62.86,11.66.86,11.66.86v0s8,0,11.66-.86A7.86,7.86,0,0,0,167.48,198.92Z"
      class="cls-13"></path>
    <path
      d="M121,95s-30,16-28.07,62.81A33.16,33.16,0,0,0,88,145c-2.45-3.78-6.36,9.86-8,0-3-18-12-70,32-87,0,0,13-14.79,47-13,38,2,60,28,66,62,1.1,6.23,4,51-4,39-8-2-6,8-12,12,0,0,2-19-18-38-8.46-8-26-19-36-24,1.62,4.55,36,23,37,30C180,115,163,117,121,95Z"
      class="cls-14"></path>
    <path d="M87.48,162.06s5.06,2.45,6.86,7.35c1.27,3.45-1.9,3.28-2.92,1.33s0-2.78,0-2.78A15,15,0,0,0,87.48,162.06Z"
      class="cls-7"></path>
    <path
      d="M216.63,162.06s-5.06,2.45-6.86,7.35c-1.26,3.45,1.91,3.28,2.92,1.33s0-2.78,0-2.78A14.92,14.92,0,0,1,216.63,162.06Z"
      class="cls-7"></path>
    <path
      d="M132.08,158.25c0,4.78-.29,7.65-6.19,8.64-3.36.57-5.54-1.24-5.85-8.89-.19-4.77,0-7.65,5.85-8.39C130.72,149,132.08,153.48,132.08,158.25Z"
      class="cls-15"></path>
    <ellipse ry="2.18" rx="1.43" cy="157.82" cx="128.43" class="cls-16"></ellipse>
    <path
      d="M180.08,158.25c0,4.78-.29,7.65-6.19,8.64-3.36.57-5.54-1.24-5.85-8.89-.19-4.77,0-7.65,5.85-8.39C178.72,149,180.08,153.48,180.08,158.25Z"
      class="cls-15"></path>
    <ellipse ry="2.18" rx="1.43" cy="157.82" cx="176.43" class="cls-17"></ellipse>
    <path
      d="M112.06,138.94a24,24,0,0,1,10.42-1.86c5.58.37,9.68.75,14.52,3.35a21.53,21.53,0,0,0-14.89-6.7C117.43,133.73,112.43,136.71,112.06,138.94Z"
      class="cls-18"></path>
    <path
      d="M187,138.94a24,24,0,0,0-10.42-1.86c-5.59.37-9.68.75-14.52,3.35a21.52,21.52,0,0,1,14.89-6.7C181.62,133.73,186.63,136.71,187,138.94Z"
      class="cls-18"></path>
  </g>
  <g class="cls-19">
    <path d="M112-139.23s22.9,18.06,36,27.53V10.44C85.31,8.21,17.34-12.74,17.34-12.74L40.76-95Z" class="cls-20"></path>
    <path d="M184-139.23s-22.9,18.06-36,27.53V10.44C210.72,8.21,278.7-12.74,278.7-12.74L255.27-95Z" class="cls-20">
    </path>
    <path d="M135.55,6.06c4.17.29,8.33.53,12.47.68q6-.23,12-.65l-5.85-99.87H141.36Z" class="cls-11"></path>
    <path d="M185.14-144.39,155.63,9.85s53.44-1.52,99-13.12L275.41-114.8l-83.12-20.69Z" class="cls-21"></path>
    <polygon points="183.09 -147.75 158.25 9.85 167.25 9.34 203.72 -54.36 192.4 -133.46 183.09 -147.75" class="cls-22">
    </polygon>
    <path d="M110.9-144.39,140.41,9.85S87,8.33,41.44-3.27L20.63-114.8l83.12-20.69Z" class="cls-21"></path>
    <polygon points="112 -147.75 136.84 9.85 127.85 9.34 91.37 -54.36 102.7 -133.46 112 -147.75" class="cls-22">
    </polygon>
  </g>
</svg>
