<svg viewBox="0 0 300 300" xmlns:xlink="http://www.w3.org/1999/xlink" xmlns="http://www.w3.org/2000/svg" id="图层_1">
  <defs>
    <style>
      .cls-1 {
        fill: none;
      }

      .cls-2 {
        clip-path: url(#clip-path);
      }

      .cls-3 {
        fill: #f6c1a9;
      }

      .cls-4 {
        fill: #a1b7bf;
      }

      .cls-5 {
        fill: #d42e2f;
      }

      .cls-6 {
        fill: #b41f20;
      }

      .cls-7 {
        fill: #ffd9c1;
      }

      .cls-8 {
        fill: #3f2f31;
      }

      .cls-9 {
        fill: #47342d;
      }

      .cls-10 {
        fill: #d89e84;
      }

      .cls-11 {
        fill: #d9e5e8;
      }

      .cls-12 {
        fill: #424242;
      }

      .cls-13 {
        fill: #2e2e2e;
      }

      .cls-14 {
        fill: #5c3e31;
      }

      .cls-15 {
        fill: #efbba0;
      }

      .cls-16 {
        fill: url(#未命名的渐变_8);
      }

      .cls-17 {
        fill: url(#linear-gradient);
      }

      .cls-18 {
        fill: url(#linear-gradient-2);
      }

      .cls-19 {
        clip-path: url(#clip-path-2);
      }
    </style>
    <clipPath id="clip-path">
      <rect height="297" width="297" y="1.5" x="1.5" class="cls-1"></rect>
    </clipPath>
    <linearGradient gradientUnits="userSpaceOnUse" y2="194.08" x2="167.59" y1="194.08" x1="128.08" id="未命名的渐变_8">
      <stop stop-color="#f2f2f2" offset="0"></stop>
      <stop stop-color="#efefef" offset="0.62"></stop>
      <stop stop-color="#e8e8e8" offset="1"></stop>
    </linearGradient>
    <linearGradient gradientUnits="userSpaceOnUse" y2="140.67" x2="125.42" y1="140.67" x1="123.07" id="linear-gradient">
      <stop stop-color="#dbdbdb" offset="0"></stop>
      <stop stop-color="#d8d8d8" offset="0.3"></stop>
      <stop stop-color="#cecece" offset="0.54"></stop>
      <stop stop-color="#bcbcbc" offset="0.76"></stop>
      <stop stop-color="#a4a4a4" offset="0.98"></stop>
      <stop stop-color="#a1a1a1" offset="1"></stop>
    </linearGradient>
    <linearGradient xlink:href="#linear-gradient" y2="140.67" x2="179.4" y1="140.67" x1="177.05" id="linear-gradient-2">
    </linearGradient>
    <clipPath id="clip-path-2">
      <path
        d="M210.73,77.2c-3-8.27-20.46-26.28-62.9-26.28S88,68.93,84.92,77.2s-8.77,24.16-7,41.71a145.33,145.33,0,0,0,7.92,33.4l3.78,4.63-.54-38.57,8-9.29,4.55-15.54c8.14,2.29,46.18,5.18,46.18,5.18s38-2.89,46.18-5.18l4.54,15.54,8,9.29L206,156.94l3.78-4.63a145.33,145.33,0,0,0,7.92-33.4C219.5,101.36,213.78,85.46,210.73,77.2Z"
        class="cls-1"></path>
    </clipPath>
  </defs>
  <g class="cls-2">
    <polygon points="183.39 264.69 111.79 264.69 114.62 198.2 180.56 198.2 183.39 264.69" class="cls-3"></polygon>
    <path d="M112,235.87s22.9,18.07,36,27.53V385.55c-62.71-2.24-130.68-23.18-130.68-23.18l23.42-82.25Z" class="cls-4">
    </path>
    <path d="M184,235.87s-22.9,18.07-36,27.53V385.55c62.7-2.24,130.68-23.18,130.68-23.18l-23.43-82.25Z" class="cls-4">
    </path>
    <polygon points="154.22 281.33 141.41 281.33 134.34 265.92 148.02 259.7 161.24 265.92 154.22 281.33" class="cls-5">
    </polygon>
    <path d="M135.55,381.16q6.25.45,12.47.68,6-.21,12-.64l-5.85-99.87H141.36Z" class="cls-6"></path>
    <path d="M85.93,148.72s-4.75-4.34-8.69-2.58-5.56,9.64-3.93,15.35,9,20.36,12.62,22.26S95.58,185,95.58,185Z"
      class="cls-7"></path>
    <path d="M209.71,148.72s4.76-4.34,8.7-2.58,5.56,9.64,3.93,15.35-9,20.36-12.63,22.26-9.63,1.23-9.63,1.23Z"
      class="cls-7"></path>
    <path
      d="M212.21,108.94c-3.53-36.94-41-49.43-64.63-49.43S86.48,72,83,108.94s12.17,85.56,12.34,89.18c.21,4.38,34.33,27.49,38.21,28.3a89.13,89.13,0,0,0,28.17,0c3.87-.81,33.9-22.67,37.83-27.92C202.5,194.5,215.74,145.87,212.21,108.94Z"
      class="cls-7"></path>
    <path
      d="M126.77,141.75c0,5.32-.27,8.52-5.78,9.63-3.14.63-5.49-1.11-5.78-9.63-.17-5.32.33-8.81,5.78-9.63C125.5,131.44,126.77,136.43,126.77,141.75Z"
      class="cls-8"></path>
    <path
      d="M169.19,141.75c0,5.32.26,8.52,5.77,9.63,3.14.63,5.49-1.11,5.78-9.63.18-5.32-.32-8.81-5.78-9.63C170.45,131.44,169.19,136.43,169.19,141.75Z"
      class="cls-8"></path>
    <path d="M164.47,124.71c-2.29,0-2.54-3.59,0-5.38s18.39-2.33,21.75-1.25S175,124.78,164.47,124.71Z" class="cls-9">
    </path>
    <path d="M130.17,124.71c2.28,0,2.54-3.59,0-5.38s-18.39-2.33-21.75-1.25S119.67,124.78,130.17,124.71Z" class="cls-9">
    </path>
    <path d="M147.83,173.9a18.06,18.06,0,0,1-5.71-1.43,5.8,5.8,0,0,0,11.41,0A18,18,0,0,1,147.83,173.9Z" class="cls-10">
    </path>
    <polygon points="184.04 230.71 147.53 259.63 175.46 282.7 190.06 239.61 184.04 230.71" class="cls-11"></polygon>
    <path d="M185.14,230.71,155.63,385s53.44-1.52,99-13.12l20.82-111.53-83.12-20.7Z" class="cls-12"></path>
    <path
      d="M297.57,362.37,275.41,260.31c-11.53,30.92-23.85,100.85-25.28,112.39C278.39,367.34,297.57,362.37,297.57,362.37Z"
      class="cls-13"></path>
    <path
      d="M82,86.14s3.34-20.87,28.1-39.64a33.92,33.92,0,0,1,1,6.56A125.62,125.62,0,0,1,155,37.5a24.2,24.2,0,0,1-.89,8.7s24.08-5.65,38.83-5.65a34.06,34.06,0,0,1,1,9.77l7.8-2s9.5,21,12.87,40.78Z"
      class="cls-14"></path>
    <path
      d="M210.73,77.2c-3-8.27-20.46-26.28-62.9-26.28S88,68.93,84.92,77.2s-8.77,24.16-7,41.71a145.33,145.33,0,0,0,7.92,33.4l3.78,4.63-.54-38.57,8-9.29,4.55-15.54c8.14,2.29,46.18,5.18,46.18,5.18s38-2.89,46.18-5.18l4.54,15.54,8,9.29L206,156.94l3.78-4.63a145.33,145.33,0,0,0,7.92-33.4C219.5,101.36,213.78,85.46,210.73,77.2Z"
      class="cls-14"></path>
    <path
      d="M210.73,77.2c-3-8.27-20.46-26.28-62.9-26.28S88,68.93,84.92,77.2s-8.77,24.16-7,41.71a145.33,145.33,0,0,0,7.92,33.4l3.78,4.63-.54-38.57,8-9.29,4.55-15.54c8.14,2.29,46.18,5.18,46.18,5.18s38-2.89,46.18-5.18l4.54,15.54,8,9.29L206,156.94l3.78-4.63a145.33,145.33,0,0,0,7.92-33.4C219.5,101.36,213.78,85.46,210.73,77.2Z"
      class="cls-1"></path>
    <polygon points="183.09 227.35 158.25 384.96 167.25 384.44 203.72 320.75 192.4 241.65 183.09 227.35" class="cls-13">
    </polygon>
    <path d="M-1.53,362.37,20.63,260.31C32.16,291.23,44.48,361.16,45.91,372.7,17.65,367.34-1.53,362.37-1.53,362.37Z"
      class="cls-13"></path>
    <polygon points="112 230.71 147.53 259.63 120.88 282.7 105.98 239.61 112 230.71" class="cls-11"></polygon>
    <path d="M110.9,230.71,140.41,385s-53.44-1.52-99-13.12L20.63,260.31l83.12-20.7Z" class="cls-12"></path>
    <polygon points="112 227.35 136.84 384.96 127.85 384.44 91.37 320.75 102.7 241.65 112 227.35" class="cls-13">
    </polygon>
    <path d="M215.1,158.82s-5.19,4.12-6,10.23c-.56,4.3,3,3.28,3.7.77s-.69-3.2-.69-3.2A17.56,17.56,0,0,1,215.1,158.82Z"
      class="cls-15"></path>
    <path d="M81.12,158.82s5.19,4.12,6,10.23c.57,4.3-3,3.28-3.7.77s.7-3.2.7-3.2A17.56,17.56,0,0,0,81.12,158.82Z"
      class="cls-15"></path>
    <path d="M125.67,191.72c2.52,7.34,11.48,12.78,22.17,12.78s19.64-5.44,22.16-12.78Z" class="cls-6"></path>
    <path d="M164.5,199.14c-3.07-3.59-9.37-6.06-16.66-6.06s-13.6,2.47-16.67,6.06a28.59,28.59,0,0,0,33.33,0Z"
      class="cls-5"></path>
    <path
      d="M167.59,191.72H128.08a9.46,9.46,0,0,0,5.49,3.81c4.43.91,14.27.91,14.27.91v0s9.83,0,14.26-.91A9.46,9.46,0,0,0,167.59,191.72Z"
      class="cls-16"></path>
    <ellipse ry="1.83" rx="1.18" cy="140.67" cx="124.25" class="cls-17"></ellipse>
    <ellipse ry="1.83" rx="1.18" cy="140.67" cx="178.23" class="cls-18"></ellipse>
    <g class="cls-19">
      <path d="M102.5,93.5l-20-23s-10,53-10,55,14,36,14,36,9,1,9-2S102.5,93.5,102.5,93.5Z" class="cls-8"></path>
      <path d="M194.5,93.5l20-23s10,53,10,55-14,36-14,36-9,1-9-2S194.5,93.5,194.5,93.5Z" class="cls-8"></path>
    </g>
  </g>
</svg>
